<?xml version="1.0" standalone="no"?>
<!DOCTYPE svg PUBLIC "-//W3C//DTD SVG 20010904//EN"
 "http://www.w3.org/TR/2001/REC-SVG-20010904/DTD/svg10.dtd">
<svg version="1.0" xmlns="http://www.w3.org/2000/svg"
 width="1024.000000pt" height="1024.000000pt" viewBox="0 0 1024.000000 1024.000000"
 preserveAspectRatio="xMidYMid meet">

<g transform="translate(0.000000,1024.000000) scale(0.100000,-0.100000)"
fill="#000000" stroke="none">
<path d="M5024 8394 c-59 -21 -123 -80 -150 -138 -45 -97 -24 -240 43 -283 14
-9 23 -23 20 -32 -5 -18 -367 -636 -389 -663 -12 -15 -32 -3 -218 127 -153
108 -204 149 -202 162 14 76 13 147 -2 188 -20 52 -79 108 -131 125 -129 43
-281 -62 -293 -203 -8 -99 39 -192 114 -223 31 -13 31 -14 43 -121 7 -59 32
-272 57 -472 25 -200 43 -365 41 -368 -3 -2 -33 6 -68 18 -76 25 -215 30 -299
10 -130 -32 -265 -132 -319 -239 -72 -141 -64 -338 19 -502 14 -28 19 -45 11
-48 -20 -7 -181 -107 -244 -152 -34 -25 -112 -94 -173 -155 -208 -208 -353
-477 -398 -743 -41 -238 -47 -486 -13 -549 19 -36 62 -63 100 -63 12 0 60 18
106 40 45 22 85 40 87 40 3 0 2 -80 -2 -177 -9 -253 22 -449 106 -667 106
-273 263 -479 573 -751 136 -120 163 -133 231 -114 32 9 76 49 76 70 0 4 5 20
10 35 l11 27 96 -102 c197 -209 349 -302 918 -561 258 -118 316 -141 345 -137
76 10 680 288 861 396 156 93 232 152 360 282 l116 118 13 -40 c20 -58 60 -89
118 -89 58 0 80 13 207 125 159 141 315 303 384 400 74 105 176 310 220 443
61 184 76 293 74 530 -1 116 1 212 3 212 2 0 40 -18 84 -40 94 -47 136 -51
179 -15 48 41 55 78 48 275 -10 282 -46 448 -143 649 -74 156 -149 265 -262
383 -109 113 -209 192 -350 275 -53 31 -99 58 -101 60 -2 2 7 27 21 55 76 155
83 336 19 473 -102 219 -389 330 -638 246 -32 -11 -59 -18 -61 -17 -1 2 6 63
17 137 11 74 38 285 61 469 26 206 46 337 53 341 99 56 127 95 135 186 7 85
-15 139 -78 196 -84 75 -183 86 -264 30 -60 -42 -90 -103 -91 -183 0 -36 4
-77 8 -91 8 -25 0 -32 -199 -172 -184 -128 -210 -144 -220 -129 -17 25 -357
580 -385 629 l-24 42 29 22 c67 53 87 188 42 285 -57 122 -211 184 -342 138z
m329 -1059 c225 -379 240 -400 297 -405 53 -5 70 2 131 51 35 28 124 92 197
140 110 75 132 86 132 69 0 -23 -79 -593 -83 -596 -3 -4 -467 -6 -1174 -5
l-632 1 -5 33 c-13 81 -76 554 -76 570 0 13 30 -3 123 -64 67 -45 156 -108
198 -141 65 -50 82 -58 118 -58 45 0 78 13 98 39 7 9 110 182 229 384 119 202
218 366 220 364 2 -2 105 -174 227 -382z m667 -1015 c0 -3 -12 -17 -26 -31
-47 -42 -114 -140 -114 -166 0 -56 65 -130 123 -140 59 -9 82 3 169 93 97 100
168 150 252 176 120 38 260 6 308 -70 20 -32 23 -50 23 -137 0 -92 -2 -104
-29 -153 -29 -51 -56 -79 -166 -171 -28 -24 -61 -58 -71 -75 -27 -44 -24 -117
7 -191 71 -166 78 -198 79 -370 0 -183 -11 -239 -74 -370 -66 -140 -163 -253
-363 -427 -46 -40 -75 -75 -95 -115 -26 -54 -28 -69 -34 -223 -6 -174 -15
-212 -65 -297 -31 -53 -81 -88 -163 -113 -141 -44 -322 -5 -438 95 -47 40 -90
122 -99 189 -6 42 -4 48 28 78 19 18 62 48 97 67 88 49 184 132 238 204 l45
62 -8 145 c-5 80 -9 244 -9 365 l0 220 111 5 c100 5 116 8 154 34 41 27 70 75
70 115 0 18 5 19 53 14 43 -4 58 -1 86 19 60 41 89 127 60 180 -27 50 -213 85
-410 76 -159 -8 -250 -65 -313 -197 l-31 -66 -1 -365 c0 -201 -1 -371 -2 -378
-1 -7 -19 -20 -39 -30 -31 -13 -73 -16 -238 -16 -110 0 -213 5 -229 10 -16 6
-39 23 -50 38 -20 27 -21 37 -18 359 3 315 2 335 -18 400 -34 108 -102 172
-216 202 -74 19 -338 23 -404 5 -96 -26 -140 -91 -106 -158 26 -50 72 -76 132
-75 52 1 52 1 58 -32 9 -45 51 -93 101 -116 30 -14 65 -19 139 -19 l98 0 -6
-267 c-3 -148 -9 -305 -12 -351 -6 -75 -4 -87 20 -136 32 -66 151 -181 256
-250 107 -70 120 -83 120 -126 0 -101 -74 -205 -185 -259 -79 -39 -208 -65
-285 -57 -75 8 -193 68 -220 111 -46 75 -62 144 -67 290 -3 87 -10 159 -20
190 -23 71 -75 146 -130 185 -73 53 -230 208 -279 277 -54 75 -118 208 -141
294 -12 46 -17 102 -17 199 0 153 14 217 71 344 38 84 50 146 39 193 -5 17
-52 71 -125 143 -101 99 -121 123 -140 173 -37 101 -22 228 34 284 74 74 220
81 354 18 63 -30 93 -54 177 -141 101 -103 102 -104 149 -104 55 0 92 19 123
64 44 64 23 126 -76 228 l-46 48 325 2 c698 6 1479 5 1479 -2z m845 -845 c312
-177 499 -389 604 -687 49 -142 87 -368 61 -368 -5 0 -66 32 -134 70 -168 95
-217 95 -266 1 -14 -27 -10 -56 31 -201 63 -222 78 -480 39 -672 -35 -171
-116 -350 -228 -507 -57 -81 -253 -284 -263 -274 -4 4 -19 50 -34 102 -31 112
-48 146 -77 162 -28 15 -104 6 -128 -16 -11 -10 -47 -70 -81 -134 -72 -138
-176 -279 -267 -361 -128 -116 -376 -267 -587 -358 -60 -25 -177 -80 -259
-120 l-149 -73 -171 79 c-94 44 -218 102 -276 128 -462 210 -676 394 -839 723
-60 122 -88 151 -147 151 -65 0 -99 -54 -139 -217 -9 -40 -20 -73 -24 -73 -9
0 -116 110 -193 200 -118 138 -202 282 -253 434 -86 255 -85 562 0 851 41 136
40 172 -5 217 -47 47 -90 40 -241 -39 -70 -37 -130 -65 -133 -63 -9 10 35 232
64 323 79 247 241 475 434 612 75 53 254 155 272 155 7 0 2 -23 -13 -61 -58
-144 -82 -441 -49 -599 54 -254 185 -472 392 -650 55 -47 118 -105 140 -128
l41 -44 6 -161 c3 -102 11 -179 20 -208 43 -132 115 -221 257 -318 l87 -60 6
-65 c7 -79 55 -203 105 -276 84 -120 264 -236 437 -280 114 -30 338 -29 445 0
149 42 300 134 389 237 76 89 141 242 141 334 0 44 2 47 90 104 41 27 100 76
132 108 118 120 162 245 160 453 l-2 131 53 54 c28 30 93 91 144 137 169 152
282 331 344 547 30 105 32 119 33 290 0 157 -3 192 -23 275 -13 52 -32 116
-42 143 -10 26 -15 47 -10 47 5 0 53 -25 106 -55z m-1713 -1946 c11 -6 46 -37
77 -69 83 -85 198 -138 321 -149 l65 -6 0 -50 c-1 -64 -32 -130 -95 -198 -96
-104 -231 -157 -405 -157 -166 0 -310 52 -386 139 -75 85 -133 240 -98 262 8
5 30 9 50 9 45 0 157 34 222 67 27 13 82 55 123 93 77 72 90 78 126 59z"/>
</g>
</svg>
